<svg id="Карта_Copy_5" data-name="Карта Copy 5" xmlns="http://www.w3.org/2000/svg" width="170" height="85" viewBox="0 0 170 85">
  <rect id="Rectangle_15" data-name="Rectangle 15" width="170" height="85" rx="10" fill="#9c5d9a"/>
  <g id="Group" transform="translate(70 20)">
    <path id="Shape" d="M25.445,27.7H1.683a.848.848,0,0,1,0-1.7h.464V12.679a.874.874,0,0,1,.008-.109H1.472A1.478,1.478,0,0,1,.6,9.905L13.716.167a.841.841,0,0,1,1.005,0L27.84,9.905a1.478,1.478,0,0,1-.876,2.665h-.682a.874.874,0,0,1,.008.109V26h.464a.848.848,0,0,1,0,1.7Z" transform="translate(0.796 0)" fill="#fff"/>
    <path id="Shape-2" data-name="Shape" d="M29.091,0H.845a.848.848,0,0,0,0,1.7H29.091a.848.848,0,0,0,0-1.7Z" transform="translate(0.046 28.718)" fill="#fff"/>
  </g>
  <text id="Банковський_переказ" data-name="Банковський переказ" transform="translate(23 74)" fill="#fff" font-size="12" font-family="SegoeUI, Segoe UI"><tspan x="0" y="0">Банковський переказ</tspan></text>
</svg>
