<svg id="Карта" xmlns="http://www.w3.org/2000/svg" width="170" height="85" viewBox="0 0 170 85">
  <rect id="Rectangle_15" data-name="Rectangle 15" width="170" height="85" rx="10" fill="#9C5D9A"/>
  <g id="Мастеркард" transform="translate(30 20)">
    <circle id="Oval" cx="12.5" cy="12.5" r="12.5" fill="#FF1105" opacity="0.8"/>
    <circle id="Oval_Copy" data-name="Oval Copy" cx="12.5" cy="12.5" r="12.5" transform="translate(16)" fill="#FFAD0C" opacity="0.7"/>
  </g>
  <g id="visa-pay-logo" transform="translate(92 24)">
    <g id="Layer_1_copy_24_">
      <path id="Shape" d="M23.043,13.965l.547-3.193.5.228a8.164,8.164,0,0,0,3.661.747c1.117,0,2.313-.437,2.325-1.393.007-.625-.5-1.069-2.016-1.769-1.476-.683-3.43-1.827-3.4-3.876C24.677,1.935,27.385,0,31.227,0A10.019,10.019,0,0,1,34.71.6l-.527,3.092-.351-.165a7.178,7.178,0,0,0-2.91-.546c-1.522,0-2.228.635-2.228,1.227-.008.669.824,1.109,2.184,1.77,2.247,1.015,3.284,2.252,3.267,3.873-.028,2.964-2.684,4.875-6.771,4.875A12.324,12.324,0,0,1,23.043,13.965Zm21.184.553s-.358-1.639-.474-2.137l-4.979-.006c-.151.385-.817,2.143-.817,2.143H33.874L39.647,1.444A1.935,1.935,0,0,1,41.684.26h3l3.146,14.258Zm-27.5-.006L19.153.246h3.89L20.61,14.512ZM3.862,2.607A15.268,15.268,0,0,1,9.248,8.521L9.654,9.99,13.462.261l4.118,0L11.458,14.5,7.344,14.5ZM0,.408.05.122H6.078A1.565,1.565,0,0,1,7.772,1.281l1.31,6.3C7.795,4.288,4.691,1.545,0,.408Z" transform="translate(0 0.554)" fill="#fff"/>
    </g>
  </g>
  <text id="Карта_Visa_MasterCar" data-name="Карта Visa/MasterCar" transform="translate(17 74)" fill="#fff" font-size="12" font-family='Gilroy Light'><tspan x="0" y="0">Карта Visa/MasterCard</tspan></text>
</svg>
