<svg id="Волонтерство" xmlns="http://www.w3.org/2000/svg" width="214" height="80" viewBox="0 0 214 80">
  <text id="Волонтерство-2" data-name="Волонтерство" transform="translate(99 50)" fill="#363b5d" font-size="18" font-family="SegoeUI, Segoe UI"><tspan x="0" y="0">Волонтерство</tspan></text>
  <g id="donation" transform="translate(21 22)">
    <g id="Group">
      <path id="Shape" d="M.718,2.1A5.449,5.449,0,0,1,4,5.381a1.079,1.079,0,1,0,2.034-.72A7.521,7.521,0,0,0,1.44.062,1.079,1.079,0,1,0,.718,2.1Z" transform="translate(28.096 4.688)" fill="#c5d5e6"/>
      <path id="Shape-2" data-name="Shape" d="M18.9,36.554a1.08,1.08,0,0,0,1.034,0c12.28-6.7,18.9-17.718,18.9-24.685A11.87,11.87,0,0,0,16.212,6.86a1.079,1.079,0,1,0,1.955.912,9.713,9.713,0,0,1,18.518,4.1c0,6.335-6.445,16.4-17.264,22.5C8.6,28.269,2.158,18.2,2.158,11.869a9.717,9.717,0,0,1,13.6-8.9A1.079,1.079,0,1,0,16.622.991,11.874,11.874,0,0,0,0,11.869C0,18.836,6.626,29.855,18.9,36.554Z" transform="translate(0.035 0.001)" fill="#c5d5e6"/>
    </g>
  </g>
  <g id="Rectangle_12_Copy" data-name="Rectangle 12 Copy" fill="none" stroke="#c5d5e6" stroke-miterlimit="10" stroke-width="2">
    <rect width="80" height="80" rx="15" stroke="none"/>
    <rect x="1" y="1" width="78" height="78" rx="14" fill="none"/>
  </g>
</svg>
