<svg id="Карта_Copy_3" data-name="Карта Copy 3" xmlns="http://www.w3.org/2000/svg" width="170" height="85" viewBox="0 0 170 85">
  <rect id="Rectangle_15" data-name="Rectangle 15" width="170" height="85" rx="10" fill="#c5d5e6"/>
  <text id="WebMoney" transform="translate(53 74)" fill="#fff" font-size="12" font-family="Gilory Light"><tspan x="0" y="0">WebMoney</tspan></text>
  <g id="webmoney-paying-logo" transform="translate(45 20)">
    <g id="Capa_1_1_">
      <g id="Layer_1_copy_32_">
        <path id="Shape" d="M58.723,10.508A10.505,10.505,0,0,1,73.839,1.066c.219.1.435.22.651.344l-.967.866L72.074.773,69.62,2.962l-1.453-1.59L63.594,5.49l2.93,3.23L65.371,9.731l2.888,3.234-1.148,1.01,4.125,4.591,2.444-2.254,2.113,2.417a11.407,11.407,0,0,1-1.382.918,10.5,10.5,0,0,1-15.688-9.138Zm16.368,5.373,1.877-1.687,1.688,1.875-1.876,1.688Zm-23.716.4c.816,0,1.318-.646,1.606-1.535l-2.3-6H52l1.535,4.415h.072l1.362-4.415h1.284l-2.168,6c-.6,1.656-1.331,2.518-2.709,2.518ZM69.1,14.163l2.5-2.25,2.25,2.5-2.5,2.25Zm-23.936-2.48c0-1.823.922-3.14,2.722-3.14,1.5,0,2.422.969,2.419,2.928v.44h-3.91c0,1.442.59,2.075,1.824,2.075a3.684,3.684,0,0,0,1.9-.623v.907a4.2,4.2,0,0,1-2.12.555C45.989,14.826,45.162,13.579,45.162,11.683Zm-12.758,0c0-2.1,1.152-3.14,2.734-3.14s2.734,1.041,2.734,3.14c0,2.05-1.091,3.143-2.734,3.143S32.4,13.733,32.4,11.683Zm-22.279,0c0-1.823.923-3.14,2.722-3.14,1.5,0,2.422.969,2.421,2.928v.44H11.36c0,1.442.589,2.075,1.823,2.075a3.689,3.689,0,0,0,1.905-.623v.907a4.193,4.193,0,0,1-2.121.555C10.954,14.826,10.125,13.579,10.125,11.683Zm6.233,2.554V5.867l1.247-.3V8.986a3.628,3.628,0,0,1,1.621-.443c1.486,0,2.29,1.03,2.29,2.945,0,2.244-1.078,3.336-2.818,3.336A5.579,5.579,0,0,1,16.358,14.237ZM42.8,14.68V10.615c0-.948-.466-1.115-1.082-1.115a3.3,3.3,0,0,0-1.463.432v4.747H39.011V9.427a6.138,6.138,0,0,1,3.057-.886c1.437,0,1.977.564,1.977,1.8V14.68Zm-13.01,0V8.515h-.107L27.237,14.68h-.766L24.024,8.661h-.107V14.68H22.838v-8.5h1.45l2.686,6.7h.06l2.563-6.7h1.487v8.5Zm-23.254,0L4.906,8.7H4.82L3.238,14.68h-1.3L0,6.179H1.344l1.343,6.342h.085L4.33,6.179H5.4l1.668,6.342h.085L8.373,6.179h1.4l-1.944,8.5ZM73.444,12.1l1.875-1.689,1.691,1.872-1.875,1.689ZM67.318,9.843l2.5-2.253,2.25,2.5-2.5,2.253Zm10.13,1.072L78.7,9.79l1.123,1.25-1.248,1.124Zm-5.6-2.779,1.872-1.688,1.691,1.874L73.531,10.01ZM75.849,7.2,77.1,6.08,78.219,7.33,76.974,8.455ZM65.528,5.576l2.5-2.25,2.249,2.5-2.5,2.249Zm4.587-1.21L71.99,2.678l1.688,1.876L71.8,6.242Zm4.137-.876L75.5,2.366l1.123,1.25L75.378,4.741Z" transform="translate(0 0.602)" fill="#fff"/>
      </g>
    </g>
  </g>
</svg>
