<svg xmlns="http://www.w3.org/2000/svg" width="29.936" height="30.414" viewBox="0 0 29.936 30.414">
  <g id="Group" transform="translate(-0.046 0)">
    <path id="Shape" d="M25.445,27.7H1.683a.848.848,0,0,1,0-1.7h.464V12.679a.874.874,0,0,1,.008-.109H1.472A1.478,1.478,0,0,1,.6,9.905L13.716.167a.841.841,0,0,1,1.005,0L27.84,9.905a1.478,1.478,0,0,1-.876,2.665h-.682a.874.874,0,0,1,.008.109V26h.464a.848.848,0,0,1,0,1.7Z" transform="translate(0.796 0)" fill="#fff"/>
    <path id="Shape-2" data-name="Shape" d="M29.091,0H.845a.848.848,0,0,0,0,1.7H29.091a.848.848,0,0,0,0-1.7Z" transform="translate(0.046 28.718)" fill="#fff"/>
  </g>
</svg>
