<svg id="Материально" xmlns="http://www.w3.org/2000/svg" width="30" height="30" viewBox="0 0 30 30">
  <rect id="Rectangle_12_Copy_4" data-name="Rectangle 12 Copy 4" width="30" height="30" rx="5" fill="#9c5d9a"/>
  <g id="clothes" transform="translate(6 4)">
    <g id="Group">
      <path id="Shape" d="M3.65,12.238a.388.388,0,0,1-.389-.389V5.677l-.835.418a.391.391,0,0,1-.491-.123L.071,3.331A.39.39,0,0,1,.14,2.808L3.4.092A.384.384,0,0,1,3.65,0h8.621a.384.384,0,0,1,.25.092l3.261,2.716a.39.39,0,0,1,.068.523L13.987,5.971a.391.391,0,0,1-.491.123l-.836-.418V6.724a.388.388,0,0,1-.777,0V.777H10.416a2.485,2.485,0,0,1-4.909,0H4.038V11.462H6.413a.388.388,0,1,1,0,.777Z" transform="translate(0.048)" fill="#fff"/>
      <path id="Shape-2" data-name="Shape" d="M5.207,14.461a.388.388,0,0,1-.388-.367L4.292,4.631l-.526,9.463a.389.389,0,0,1-.388.367H.388A.389.389,0,0,1,0,14.072V.388A.388.388,0,0,1,.388,0H8.2a.388.388,0,0,1,.389.388V14.072a.389.389,0,0,1-.389.389Z" transform="translate(7.321 7.563)" fill="#fff"/>
    </g>
  </g>
</svg>
