<svg id="Карта_Copy_4" data-name="Карта Copy 4" xmlns="http://www.w3.org/2000/svg" width="170" height="85" viewBox="0 0 170 85">
  <rect id="Rectangle_15" data-name="Rectangle 15" width="170" height="85" rx="10" fill="#c5d5e6"/>
  <g id="paypal-logo" transform="translate(70 20)">
    <path id="PayPal" d="M3.08,30.682l.328-1.494h6.623l1.931-9.052h5.632a10.986,10.986,0,0,0,11.1-8.969,8.329,8.329,0,0,0-.37-5.218,7.548,7.548,0,0,1,1.3,6.711,10.987,10.987,0,0,1-11.1,8.969H12.894l-1.931,9.053ZM0,27.322,5.953,0H19.387c3.939,0,8.525,2.905,7.16,9.3a10.986,10.986,0,0,1-11.1,8.969H9.814L7.883,27.322Z" transform="translate(0.064)" fill="#fff"/>
  </g>
  <text id="PayPal-2" data-name="PayPal" transform="translate(66 74)" fill="#fff" font-size="12" font-family="Gilory Light"><tspan x="0" y="0">PayPal</tspan></text>
</svg>
